<mxfile host="app.diagrams.net" modified="2021-07-17T14:38:25.612Z" agent="5.0 (Macintosh; Intel Mac OS X 10_15_7) AppleWebKit/537.36 (KHTML, like Gecko) Chrome/91.0.4472.114 Safari/537.36" etag="Ugi-BozCMB0xI9Lls-V8" version="14.8.4" type="github">
  <diagram id="mAp4VmS6LXDbzR6L3dF2" name="第 1 页">
    <mxGraphModel dx="946" dy="502" grid="1" gridSize="10" guides="1" tooltips="1" connect="1" arrows="1" fold="1" page="1" pageScale="1" pageWidth="827" pageHeight="1169" math="0" shadow="0">
      <root>
        <mxCell id="0" />
        <mxCell id="1" parent="0" />
        <mxCell id="me268Yvqg-MvkGSV702x-31" style="edgeStyle=orthogonalEdgeStyle;rounded=0;orthogonalLoop=1;jettySize=auto;html=1;exitX=0.5;exitY=0;exitDx=0;exitDy=0;entryX=0;entryY=0.5;entryDx=0;entryDy=0;dashed=1;" edge="1" parent="1" source="me268Yvqg-MvkGSV702x-1" target="me268Yvqg-MvkGSV702x-26">
          <mxGeometry relative="1" as="geometry" />
        </mxCell>
        <mxCell id="me268Yvqg-MvkGSV702x-1" value="logtail" style="rounded=1;whiteSpace=wrap;html=1;" vertex="1" parent="1">
          <mxGeometry x="120" y="210" width="120" height="60" as="geometry" />
        </mxCell>
        <mxCell id="me268Yvqg-MvkGSV702x-8" style="edgeStyle=orthogonalEdgeStyle;rounded=0;orthogonalLoop=1;jettySize=auto;html=1;exitX=1;exitY=0.5;exitDx=0;exitDy=0;entryX=0;entryY=0.5;entryDx=0;entryDy=0;" edge="1" parent="1" source="me268Yvqg-MvkGSV702x-3" target="me268Yvqg-MvkGSV702x-4">
          <mxGeometry relative="1" as="geometry" />
        </mxCell>
        <mxCell id="me268Yvqg-MvkGSV702x-3" value="log-access" style="rounded=1;whiteSpace=wrap;html=1;" vertex="1" parent="1">
          <mxGeometry x="300" y="210" width="120" height="60" as="geometry" />
        </mxCell>
        <mxCell id="me268Yvqg-MvkGSV702x-17" style="edgeStyle=orthogonalEdgeStyle;rounded=0;orthogonalLoop=1;jettySize=auto;html=1;exitX=0.5;exitY=0;exitDx=0;exitDy=0;" edge="1" parent="1" source="me268Yvqg-MvkGSV702x-4">
          <mxGeometry relative="1" as="geometry">
            <mxPoint x="540" y="140" as="targetPoint" />
          </mxGeometry>
        </mxCell>
        <mxCell id="me268Yvqg-MvkGSV702x-4" value="logfn" style="rounded=1;whiteSpace=wrap;html=1;" vertex="1" parent="1">
          <mxGeometry x="480" y="210" width="120" height="60" as="geometry" />
        </mxCell>
        <mxCell id="me268Yvqg-MvkGSV702x-5" value="log-insight&lt;br&gt;（ES）" style="rounded=1;whiteSpace=wrap;html=1;" vertex="1" parent="1">
          <mxGeometry x="630" y="210" width="120" height="60" as="geometry" />
        </mxCell>
        <mxCell id="me268Yvqg-MvkGSV702x-7" value="" style="endArrow=classic;startArrow=classic;html=1;exitX=1;exitY=0.5;exitDx=0;exitDy=0;entryX=0;entryY=0.5;entryDx=0;entryDy=0;" edge="1" parent="1" source="me268Yvqg-MvkGSV702x-1" target="me268Yvqg-MvkGSV702x-3">
          <mxGeometry width="50" height="50" relative="1" as="geometry">
            <mxPoint x="180" y="350" as="sourcePoint" />
            <mxPoint x="230" y="300" as="targetPoint" />
          </mxGeometry>
        </mxCell>
        <mxCell id="me268Yvqg-MvkGSV702x-15" value="向Topic发送数据" style="text;html=1;align=center;verticalAlign=middle;resizable=0;points=[];autosize=1;strokeColor=none;" vertex="1" parent="1">
          <mxGeometry x="190" y="100" width="100" height="20" as="geometry" />
        </mxCell>
        <mxCell id="me268Yvqg-MvkGSV702x-18" value="创建EsSink+topic" style="text;html=1;align=center;verticalAlign=middle;resizable=0;points=[];autosize=1;strokeColor=none;" vertex="1" parent="1">
          <mxGeometry x="470" y="170" width="110" height="20" as="geometry" />
        </mxCell>
        <mxCell id="me268Yvqg-MvkGSV702x-20" value="通过EsSink&lt;br&gt;完成数据同步" style="text;html=1;align=center;verticalAlign=middle;resizable=0;points=[];autosize=1;strokeColor=none;" vertex="1" parent="1">
          <mxGeometry x="690" y="160" width="90" height="30" as="geometry" />
        </mxCell>
        <mxCell id="me268Yvqg-MvkGSV702x-29" style="edgeStyle=orthogonalEdgeStyle;rounded=0;orthogonalLoop=1;jettySize=auto;html=1;exitX=1;exitY=0.5;exitDx=0;exitDy=0;entryX=0.5;entryY=0;entryDx=0;entryDy=0;dashed=1;" edge="1" parent="1" source="me268Yvqg-MvkGSV702x-23" target="me268Yvqg-MvkGSV702x-5">
          <mxGeometry relative="1" as="geometry" />
        </mxCell>
        <mxCell id="me268Yvqg-MvkGSV702x-23" value="EsSink" style="rounded=1;whiteSpace=wrap;html=1;" vertex="1" parent="1">
          <mxGeometry x="460" y="105" width="160" height="30" as="geometry" />
        </mxCell>
        <mxCell id="me268Yvqg-MvkGSV702x-28" style="edgeStyle=orthogonalEdgeStyle;rounded=0;orthogonalLoop=1;jettySize=auto;html=1;exitX=1;exitY=0.5;exitDx=0;exitDy=0;entryX=0;entryY=0.5;entryDx=0;entryDy=0;dashed=1;" edge="1" parent="1" source="me268Yvqg-MvkGSV702x-26" target="me268Yvqg-MvkGSV702x-23">
          <mxGeometry relative="1" as="geometry" />
        </mxCell>
        <mxCell id="me268Yvqg-MvkGSV702x-26" value="Topic" style="rounded=1;whiteSpace=wrap;html=1;" vertex="1" parent="1">
          <mxGeometry x="290" y="105" width="100" height="30" as="geometry" />
        </mxCell>
      </root>
    </mxGraphModel>
  </diagram>
</mxfile>
